<?xml version="1.0" encoding="UTF-8" standalone="no"?>
<!DOCTYPE svg PUBLIC "-//W3C//DTD SVG 1.1//EN"
 "http://www.w3.org/Graphics/SVG/1.1/DTD/svg11.dtd">
<!-- Generated by graphviz version 2.43.0 (0)
 -->
<!-- Title: my_graph Pages: 1 -->
<svg width="669pt" height="537pt"
 viewBox="14.40 14.40 654.40 522.40" xmlns="http://www.w3.org/2000/svg" xmlns:xlink="http://www.w3.org/1999/xlink">
<g id="graph0" class="graph" transform="scale(1 1) rotate(0) translate(18.4 518.4)">
<title>my_graph</title>
<polygon fill="white" stroke="transparent" points="-4,4 -4,-504 636,-504 636,4 -4,4"/>
<!-- node1 -->
<g id="node1" class="node">
<title>node1</title>
<polygon fill="#2ca02c" stroke="black" points="308.5,-192 5.5,-192 5.5,-120 308.5,-120 308.5,-192"/>
<text text-anchor="middle" x="157" y="-151" font-family="HackGen35" font-size="20.00" fill="white">&lt;http://example.org/donna&gt;</text>
</g>
<!-- node3 -->
<g id="node2" class="node">
<title>node3</title>
<polygon fill="#8c564b" stroke="black" points="587,-209 432,-209 432,-137 587,-137 587,-209"/>
<text text-anchor="middle" x="509.5" y="-168" font-family="HackGen35" font-size="20.00" fill="white">&quot;Donna Fales&quot;</text>
</g>
<!-- node1&#45;&gt;node3 -->
<g id="edge1" class="edge">
<title>node1&#45;&gt;node3</title>
<path fill="none" stroke="#ff7f0e" stroke-width="3" d="M308.68,-163.31C347.18,-165.18 387.3,-167.12 421.4,-168.78"/>
<polygon fill="#ff7f0e" stroke="#ff7f0e" stroke-width="3" points="421.63,-172.29 431.78,-169.28 421.97,-165.3 421.63,-172.29"/>
<text text-anchor="middle" x="350.5" y="-171.2" font-family="Hackgen" font-size="16.00">&lt;foaf:name&gt;</text>
</g>
<!-- node9 -->
<g id="node6" class="node">
<title>node9</title>
<polygon fill="#8c564b" stroke="black" points="581.5,-72 437.5,-72 437.5,0 581.5,0 581.5,-72"/>
<text text-anchor="middle" x="509.5" y="-31" font-family="HackGen35" font-size="20.00" fill="white">&quot;donna&quot;@ed</text>
</g>
<!-- node1&#45;&gt;node9 -->
<g id="edge4" class="edge">
<title>node1&#45;&gt;node9</title>
<path fill="none" stroke="#ff7f0e" stroke-width="3" d="M263.16,-120C315.9,-101.94 378.79,-80.41 427.68,-63.67"/>
<polygon fill="#ff7f0e" stroke="#ff7f0e" stroke-width="3" points="428.94,-66.94 437.27,-60.39 426.68,-60.31 428.94,-66.94"/>
<text text-anchor="middle" x="350.5" y="-96.2" font-family="Hackgen" font-size="16.00">&lt;foaf:nick&gt;</text>
</g>
<!-- node4 -->
<g id="node3" class="node">
<title>node4</title>
<polygon fill="#2ca02c" stroke="black" points="314,-397 0,-397 0,-325 314,-325 314,-397"/>
<text text-anchor="middle" x="157" y="-356" font-family="HackGen35" font-size="20.00" fill="white">&lt;http://example.org/edward&gt;</text>
</g>
<!-- node6 -->
<g id="node4" class="node">
<title>node6</title>
<polygon fill="#8c564b" stroke="black" points="632,-500 387,-500 387,-428 632,-428 632,-500"/>
<text text-anchor="middle" x="509.5" y="-459" font-family="HackGen35" font-size="20.00" fill="white">&quot;Edward Scissorhands&quot;</text>
</g>
<!-- node4&#45;&gt;node6 -->
<g id="edge2" class="edge">
<title>node4&#45;&gt;node6</title>
<path fill="none" stroke="#ff7f0e" stroke-width="3" d="M280.59,-397.02C311.81,-406.2 345.48,-416.09 377.12,-425.39"/>
<polygon fill="#ff7f0e" stroke="#ff7f0e" stroke-width="3" points="376.29,-428.8 386.87,-428.26 378.26,-422.08 376.29,-428.8"/>
<text text-anchor="middle" x="350.5" y="-422.2" font-family="Hackgen" font-size="16.00">&lt;foaf:name&gt;</text>
</g>
<!-- node8 -->
<g id="node5" class="node">
<title>node8</title>
<polygon fill="#8c564b" stroke="black" points="605,-363 414,-363 414,-291 605,-291 605,-363"/>
<text text-anchor="middle" x="509.5" y="-322" font-family="HackGen35" font-size="20.00" fill="white">&quot;ed&quot;^^xsd:string</text>
</g>
<!-- node4&#45;&gt;node8 -->
<g id="edge3" class="edge">
<title>node4&#45;&gt;node8</title>
<path fill="none" stroke="#ff7f0e" stroke-width="3" d="M314.03,-345.86C344.29,-342.93 375.33,-339.92 403.48,-337.19"/>
<polygon fill="#ff7f0e" stroke="#ff7f0e" stroke-width="3" points="404.09,-340.64 413.71,-336.2 403.42,-333.68 404.09,-340.64"/>
<text text-anchor="middle" x="350.5" y="-347.2" font-family="Hackgen" font-size="16.00">&lt;foaf:nick&gt;</text>
</g>
</g>
</svg>
