<?xml version="1.0" encoding="UTF-8" standalone="no"?>
<!DOCTYPE svg PUBLIC "-//W3C//DTD SVG 1.1//EN"
 "http://www.w3.org/Graphics/SVG/1.1/DTD/svg11.dtd">
<!-- Generated by graphviz version 2.43.0 (0)
 -->
<!-- Title: my_graph Pages: 1 -->
<svg width="499pt" height="537pt"
 viewBox="14.40 14.40 484.40 522.40" xmlns="http://www.w3.org/2000/svg" xmlns:xlink="http://www.w3.org/1999/xlink">
<g id="graph0" class="graph" transform="scale(1 1) rotate(0) translate(18.4 518.4)">
<title>my_graph</title>
<polygon fill="white" stroke="transparent" points="-4,4 -4,-504 466,-504 466,4 -4,4"/>
<!-- node1 -->
<g id="node1" class="node">
<title>node1</title>
<polygon fill="#2ca02c" stroke="black" points="144,-192 0,-192 0,-120 144,-120 144,-192"/>
<text text-anchor="middle" x="72" y="-151" font-family="HackGen35" font-size="20.00" fill="white">:edward</text>
</g>
<!-- node7 -->
<g id="node4" class="node">
<title>node7</title>
<polygon fill="#8c564b" stroke="black" points="435,-209 244,-209 244,-137 435,-137 435,-209"/>
<text text-anchor="middle" x="339.5" y="-168" font-family="HackGen35" font-size="20.00" fill="white">&quot;ed&quot;^^xsd:string</text>
</g>
<!-- node1&#45;&gt;node7 -->
<g id="edge2" class="edge">
<title>node1&#45;&gt;node7</title>
<path fill="none" stroke="#ff7f0e" stroke-width="3" d="M144.15,-160.56C171.61,-162.31 203.59,-164.36 233.59,-166.28"/>
<polygon fill="#ff7f0e" stroke="#ff7f0e" stroke-width="3" points="233.47,-169.78 243.68,-166.93 233.92,-162.8 233.47,-169.78"/>
<text text-anchor="middle" x="180.5" y="-168.2" font-family="Hackgen" font-size="16.00">&lt;foaf:nick&gt;</text>
</g>
<!-- node8 -->
<g id="node5" class="node">
<title>node8</title>
<polygon fill="#8c564b" stroke="black" points="462,-72 217,-72 217,0 462,0 462,-72"/>
<text text-anchor="middle" x="339.5" y="-31" font-family="HackGen35" font-size="20.00" fill="white">&quot;Edward Scissorhands&quot;</text>
</g>
<!-- node1&#45;&gt;node8 -->
<g id="edge3" class="edge">
<title>node1&#45;&gt;node8</title>
<path fill="none" stroke="#ff7f0e" stroke-width="3" d="M144.15,-123.84C176.44,-109.25 214.98,-91.83 249.2,-76.36"/>
<polygon fill="#ff7f0e" stroke="#ff7f0e" stroke-width="3" points="251.05,-79.37 258.72,-72.06 248.17,-72.99 251.05,-79.37"/>
<text text-anchor="middle" x="180.5" y="-113.2" font-family="Hackgen" font-size="16.00">&lt;foaf:name&gt;</text>
</g>
<!-- node3 -->
<g id="node2" class="node">
<title>node3</title>
<polygon fill="#2ca02c" stroke="black" points="144,-397 0,-397 0,-325 144,-325 144,-397"/>
<text text-anchor="middle" x="72" y="-356" font-family="HackGen35" font-size="20.00" fill="white">:donna</text>
</g>
<!-- node6 -->
<g id="node3" class="node">
<title>node6</title>
<polygon fill="#8c564b" stroke="black" points="417,-500 262,-500 262,-428 417,-428 417,-500"/>
<text text-anchor="middle" x="339.5" y="-459" font-family="HackGen35" font-size="20.00" fill="white">&quot;Donna Fales&quot;</text>
</g>
<!-- node3&#45;&gt;node6 -->
<g id="edge1" class="edge">
<title>node3&#45;&gt;node6</title>
<path fill="none" stroke="#ff7f0e" stroke-width="3" d="M144.15,-388.6C177.28,-401.46 217,-416.86 251.87,-430.39"/>
<polygon fill="#ff7f0e" stroke="#ff7f0e" stroke-width="3" points="250.97,-433.8 261.56,-434.15 253.5,-427.27 250.97,-433.8"/>
<text text-anchor="middle" x="180.5" y="-407.2" font-family="Hackgen" font-size="16.00">&lt;foaf:name&gt;</text>
</g>
<!-- node9 -->
<g id="node6" class="node">
<title>node9</title>
<polygon fill="#8c564b" stroke="black" points="411.5,-363 267.5,-363 267.5,-291 411.5,-291 411.5,-363"/>
<text text-anchor="middle" x="339.5" y="-322" font-family="HackGen35" font-size="20.00" fill="white">&quot;donna&quot;@ed</text>
</g>
<!-- node3&#45;&gt;node9 -->
<g id="edge4" class="edge">
<title>node3&#45;&gt;node9</title>
<path fill="none" stroke="#ff7f0e" stroke-width="3" d="M144.15,-351.89C178.97,-347.43 221.05,-342.04 257.14,-337.42"/>
<polygon fill="#ff7f0e" stroke="#ff7f0e" stroke-width="3" points="257.68,-340.88 267.15,-336.14 256.79,-333.94 257.68,-340.88"/>
<text text-anchor="middle" x="180.5" y="-352.2" font-family="Hackgen" font-size="16.00">&lt;foaf:nick&gt;</text>
</g>
</g>
</svg>
