<?xml version="1.0" encoding="UTF-8" standalone="no"?>
<!DOCTYPE svg PUBLIC "-//W3C//DTD SVG 1.1//EN"
 "http://www.w3.org/Graphics/SVG/1.1/DTD/svg11.dtd">
<!-- Generated by graphviz version 2.43.0 (0)
 -->
<!-- Title: my_graph Pages: 1 -->
<svg width="685pt" height="931pt"
 viewBox="14.40 14.40 670.40 916.40" xmlns="http://www.w3.org/2000/svg" xmlns:xlink="http://www.w3.org/1999/xlink">
<g id="graph0" class="graph" transform="scale(1 1) rotate(0) translate(18.4 912.4)">
<title>my_graph</title>
<polygon fill="white" stroke="transparent" points="-4,4 -4,-898 652,-898 652,4 -4,4"/>
<!-- node1 -->
<g id="node1" class="node">
<title>node1</title>
<polygon fill="#2ca02c" stroke="black" points="216,-688 0,-688 0,-616 216,-616 216,-688"/>
<text text-anchor="middle" x="108" y="-647" font-family="HackGen35" font-size="20.00" fill="white">:edward</text>
</g>
<!-- node2 -->
<g id="node2" class="node">
<title>node2</title>
<polygon fill="#8c564b" stroke="black" points="576.5,-894 360.5,-894 360.5,-822 576.5,-822 576.5,-894"/>
<text text-anchor="middle" x="468.5" y="-853" font-family="HackGen35" font-size="20.00" fill="white">Edward Scissorhands</text>
</g>
<!-- node1&#45;&gt;node2 -->
<g id="edge1" class="edge">
<title>node1&#45;&gt;node2</title>
<path fill="none" stroke="#ff7f0e" stroke-width="3" d="M149.15,-688.28C184.14,-718.5 237.25,-761.12 289,-790 308.42,-800.84 329.92,-810.67 351.08,-819.27"/>
<polygon fill="#ff7f0e" stroke="#ff7f0e" stroke-width="3" points="349.85,-822.55 360.44,-823.01 352.45,-816.05 349.85,-822.55"/>
<text text-anchor="middle" x="252.5" y="-772.2" font-family="Hackgen" font-size="16.00">foaf:name</text>
</g>
<!-- node5 -->
<g id="node5" class="node">
<title>node5</title>
<polygon fill="#1f77b4" stroke="black" points="648,-757 289,-757 289,-685 648,-685 648,-757"/>
<text text-anchor="start" x="289" y="-716" font-family="HackGen35" font-size="20.00" fill="white">mailto:e.scissorhands@example.org</text>
</g>
<!-- node1&#45;&gt;node5 -->
<g id="edge3" class="edge">
<title>node1&#45;&gt;node5</title>
<path fill="none" stroke="#ff7f0e" stroke-width="3" d="M216.08,-672.61C236.03,-676.45 257.41,-680.56 278.97,-684.71"/>
<polygon fill="#ff7f0e" stroke="#ff7f0e" stroke-width="3" points="278.4,-688.17 288.88,-686.62 279.73,-681.29 278.4,-688.17"/>
<text text-anchor="middle" x="252.5" y="-684.2" font-family="Hackgen" font-size="16.00">foaf:mbox</text>
</g>
<!-- node6 -->
<g id="node6" class="node">
<title>node6</title>
<polygon fill="#1f77b4" stroke="black" points="576.5,-483 360.5,-483 360.5,-411 576.5,-411 576.5,-483"/>
<text text-anchor="middle" x="468.5" y="-442" font-family="HackGen35" font-size="20.00" fill="white">foaf:Person</text>
</g>
<!-- node1&#45;&gt;node6 -->
<g id="edge5" class="edge">
<title>node1&#45;&gt;node6</title>
<path fill="none" stroke="#ff7f0e" stroke-width="3" d="M149.97,-615.76C185.05,-586.08 237.84,-544.48 289,-516 308.34,-505.23 329.71,-495.39 350.74,-486.73"/>
<polygon fill="#ff7f0e" stroke="#ff7f0e" stroke-width="3" points="352.09,-489.96 360.05,-482.96 349.46,-483.47 352.09,-489.96"/>
<text text-anchor="middle" x="252.5" y="-543.2" font-family="Hackgen" font-size="16.00">rdf:type</text>
</g>
<!-- node8 -->
<g id="node8" class="node">
<title>node8</title>
<polygon fill="#8c564b" stroke="black" points="576.5,-620 360.5,-620 360.5,-548 576.5,-548 576.5,-620"/>
<text text-anchor="middle" x="468.5" y="-579" font-family="HackGen35" font-size="20.00" fill="white">&quot;ed&quot;^^xsd:string</text>
</g>
<!-- node1&#45;&gt;node8 -->
<g id="edge7" class="edge">
<title>node1&#45;&gt;node8</title>
<path fill="none" stroke="#ff7f0e" stroke-width="3" d="M216.08,-631.69C258.38,-623.67 307.12,-614.42 350.36,-606.22"/>
<polygon fill="#ff7f0e" stroke="#ff7f0e" stroke-width="3" points="351.18,-609.63 360.36,-604.32 349.88,-602.75 351.18,-609.63"/>
<text text-anchor="middle" x="252.5" y="-629.2" font-family="Hackgen" font-size="16.00">foaf:nick</text>
</g>
<!-- node3 -->
<g id="node3" class="node">
<title>node3</title>
<polygon fill="#2ca02c" stroke="black" points="216,-278 0,-278 0,-206 216,-206 216,-278"/>
<text text-anchor="middle" x="108" y="-237" font-family="HackGen35" font-size="20.00" fill="white">:donna</text>
</g>
<!-- node4 -->
<g id="node4" class="node">
<title>node4</title>
<polygon fill="#8c564b" stroke="black" points="576.5,-346 360.5,-346 360.5,-274 576.5,-274 576.5,-346"/>
<text text-anchor="middle" x="468.5" y="-305" font-family="HackGen35" font-size="20.00" fill="white">&quot;donna&quot;@ed</text>
</g>
<!-- node3&#45;&gt;node4 -->
<g id="edge2" class="edge">
<title>node3&#45;&gt;node4</title>
<path fill="none" stroke="#ff7f0e" stroke-width="3" d="M216.08,-262.31C258.38,-270.33 307.12,-279.58 350.36,-287.78"/>
<polygon fill="#ff7f0e" stroke="#ff7f0e" stroke-width="3" points="349.88,-291.25 360.36,-289.68 351.18,-284.37 349.88,-291.25"/>
<text text-anchor="middle" x="252.5" y="-274.2" font-family="Hackgen" font-size="16.00">foaf:nick</text>
</g>
<!-- node3&#45;&gt;node6 -->
<g id="edge4" class="edge">
<title>node3&#45;&gt;node6</title>
<path fill="none" stroke="#ff7f0e" stroke-width="3" d="M149.54,-278.29C184.56,-308.27 237.51,-350.38 289,-379 308.44,-389.81 329.95,-399.62 351.11,-408.21"/>
<polygon fill="#ff7f0e" stroke="#ff7f0e" stroke-width="3" points="349.88,-411.49 360.47,-411.95 352.48,-404.99 349.88,-411.49"/>
<text text-anchor="middle" x="252.5" y="-361.2" font-family="Hackgen" font-size="16.00">rdf:type</text>
</g>
<!-- node7 -->
<g id="node7" class="node">
<title>node7</title>
<polygon fill="#1f77b4" stroke="black" points="606,-209 331,-209 331,-137 606,-137 606,-209"/>
<text text-anchor="start" x="331" y="-168" font-family="HackGen35" font-size="20.00" fill="white">mailto:donna@example.org</text>
</g>
<!-- node3&#45;&gt;node7 -->
<g id="edge6" class="edge">
<title>node3&#45;&gt;node7</title>
<path fill="none" stroke="#ff7f0e" stroke-width="3" d="M216.08,-221.39C248.99,-215.06 285.79,-207.97 320.87,-201.22"/>
<polygon fill="#ff7f0e" stroke="#ff7f0e" stroke-width="3" points="321.56,-204.65 330.72,-199.33 320.24,-197.78 321.56,-204.65"/>
<text text-anchor="middle" x="252.5" y="-220.2" font-family="Hackgen" font-size="16.00">foaf:mbox</text>
</g>
<!-- node9 -->
<g id="node9" class="node">
<title>node9</title>
<polygon fill="#8c564b" stroke="black" points="576.5,-72 360.5,-72 360.5,0 576.5,0 576.5,-72"/>
<text text-anchor="middle" x="468.5" y="-31" font-family="HackGen35" font-size="20.00" fill="white">Donna Fales</text>
</g>
<!-- node3&#45;&gt;node9 -->
<g id="edge8" class="edge">
<title>node3&#45;&gt;node9</title>
<path fill="none" stroke="#ff7f0e" stroke-width="3" d="M149.15,-205.72C184.14,-175.5 237.25,-132.88 289,-104 308.42,-93.16 329.92,-83.33 351.08,-74.73"/>
<polygon fill="#ff7f0e" stroke="#ff7f0e" stroke-width="3" points="352.45,-77.95 360.44,-70.99 349.85,-71.45 352.45,-77.95"/>
<text text-anchor="middle" x="252.5" y="-132.2" font-family="Hackgen" font-size="16.00">foaf:name</text>
</g>
</g>
</svg>
