<?xml version="1.0" encoding="UTF-8" standalone="no"?>
<!DOCTYPE svg PUBLIC "-//W3C//DTD SVG 1.1//EN"
 "http://www.w3.org/Graphics/SVG/1.1/DTD/svg11.dtd">
<!-- Generated by graphviz version 2.43.0 (0)
 -->
<!-- Title: my_graph Pages: 1 -->
<svg width="499pt" height="537pt"
 viewBox="14.40 14.40 484.40 522.40" xmlns="http://www.w3.org/2000/svg" xmlns:xlink="http://www.w3.org/1999/xlink">
<g id="graph0" class="graph" transform="scale(1 1) rotate(0) translate(18.4 518.4)">
<title>my_graph</title>
<polygon fill="white" stroke="transparent" points="-4,4 -4,-504 466,-504 466,4 -4,4"/>
<!-- node1 -->
<g id="node1" class="node">
<title>node1</title>
<polygon fill="#2ca02c" stroke="black" points="144,-192 0,-192 0,-120 144,-120 144,-192"/>
<text text-anchor="middle" x="72" y="-151" font-family="HackGen35" font-size="20.00" fill="white">:donna</text>
</g>
<!-- node2 -->
<g id="node2" class="node">
<title>node2</title>
<polygon fill="#8c564b" stroke="black" points="411.5,-209 267.5,-209 267.5,-137 411.5,-137 411.5,-209"/>
<text text-anchor="middle" x="339.5" y="-168" font-family="HackGen35" font-size="20.00" fill="white">&quot;donna&quot;@ed</text>
</g>
<!-- node1&#45;&gt;node2 -->
<g id="edge1" class="edge">
<title>node1&#45;&gt;node2</title>
<path fill="none" stroke="#ff7f0e" stroke-width="3" d="M144.15,-160.56C178.97,-162.79 221.05,-165.48 257.14,-167.79"/>
<polygon fill="#ff7f0e" stroke="#ff7f0e" stroke-width="3" points="256.95,-171.29 267.15,-168.43 257.4,-164.3 256.95,-171.29"/>
<text text-anchor="middle" x="180.5" y="-168.2" font-family="Hackgen" font-size="16.00">&lt;foaf:nick&gt;</text>
</g>
<!-- node5 -->
<g id="node4" class="node">
<title>node5</title>
<polygon fill="#8c564b" stroke="black" points="417,-72 262,-72 262,0 417,0 417,-72"/>
<text text-anchor="middle" x="339.5" y="-31" font-family="HackGen35" font-size="20.00" fill="white">&quot;Donna Fales&quot;</text>
</g>
<!-- node1&#45;&gt;node5 -->
<g id="edge2" class="edge">
<title>node1&#45;&gt;node5</title>
<path fill="none" stroke="#ff7f0e" stroke-width="3" d="M144.15,-123.84C177.43,-108.8 217.34,-90.76 252.31,-74.96"/>
<polygon fill="#ff7f0e" stroke="#ff7f0e" stroke-width="3" points="253.89,-78.08 261.56,-70.77 251.01,-71.7 253.89,-78.08"/>
<text text-anchor="middle" x="180.5" y="-113.2" font-family="Hackgen" font-size="16.00">&lt;foaf:name&gt;</text>
</g>
<!-- node3 -->
<g id="node3" class="node">
<title>node3</title>
<polygon fill="#2ca02c" stroke="black" points="144,-397 0,-397 0,-325 144,-325 144,-397"/>
<text text-anchor="middle" x="72" y="-356" font-family="HackGen35" font-size="20.00" fill="white">:edward</text>
</g>
<!-- node8 -->
<g id="node5" class="node">
<title>node8</title>
<polygon fill="#8c564b" stroke="black" points="435,-500 244,-500 244,-428 435,-428 435,-500"/>
<text text-anchor="middle" x="339.5" y="-459" font-family="HackGen35" font-size="20.00" fill="white">&quot;ed&quot;^^xsd:string</text>
</g>
<!-- node3&#45;&gt;node8 -->
<g id="edge3" class="edge">
<title>node3&#45;&gt;node8</title>
<path fill="none" stroke="#ff7f0e" stroke-width="3" d="M144.15,-388.6C172.41,-399.56 205.45,-412.38 236.19,-424.31"/>
<polygon fill="#ff7f0e" stroke="#ff7f0e" stroke-width="3" points="235.06,-427.63 245.65,-427.98 237.59,-421.1 235.06,-427.63"/>
<text text-anchor="middle" x="180.5" y="-407.2" font-family="Hackgen" font-size="16.00">&lt;foaf:nick&gt;</text>
</g>
<!-- node9 -->
<g id="node6" class="node">
<title>node9</title>
<polygon fill="#8c564b" stroke="black" points="462,-363 217,-363 217,-291 462,-291 462,-363"/>
<text text-anchor="middle" x="339.5" y="-322" font-family="HackGen35" font-size="20.00" fill="white">&quot;Edward Scissorhands&quot;</text>
</g>
<!-- node3&#45;&gt;node9 -->
<g id="edge4" class="edge">
<title>node3&#45;&gt;node9</title>
<path fill="none" stroke="#ff7f0e" stroke-width="3" d="M144.15,-351.89C163.6,-349.4 185.31,-346.62 206.98,-343.84"/>
<polygon fill="#ff7f0e" stroke="#ff7f0e" stroke-width="3" points="207.45,-347.31 216.93,-342.57 206.56,-340.37 207.45,-347.31"/>
<text text-anchor="middle" x="180.5" y="-352.2" font-family="Hackgen" font-size="16.00">&lt;foaf:name&gt;</text>
</g>
</g>
</svg>
